<?xml version="1.0" encoding="UTF-8"?>
<!DOCTYPE svg PUBLIC "-//W3C//DTD SVG 1.1//EN" "http://www.w3.org/Graphics/SVG/1.1/DTD/svg11.dtd">
<!-- Creator: CorelDRAW 2019 (64-Bit) -->
<svg xmlns="http://www.w3.org/2000/svg" xml:space="preserve" width="430.156mm" height="519.036mm" version="1.1" style="shape-rendering:geometricPrecision; text-rendering:geometricPrecision; image-rendering:optimizeQuality; fill-rule:evenodd; clip-rule:evenodd"
viewBox="0 0 12396.38 14957.77"
 xmlns:xlink="http://www.w3.org/1999/xlink"
 xmlns:xodm="http://www.corel.com/coreldraw/odm/2003">
 <defs>
  <style type="text/css">
   <![CDATA[
    .fil0 {fill:#FEFEFE}
    .fil1 {fill:#FEFEFE;fill-rule:nonzero}
   ]]>
  </style>
 </defs>
 <g id="Слой_x0020_1">
  <metadata id="CorelCorpID_0Corel-Layer"/>
  <g id="_2054620448928">
   <g>
    <g>
     <path class="fil0" d="M6151.95 8829.96l0 1938.31c0,21.42 13.92,39.53 34.61,45.06 20.69,5.52 41.78,-3.24 52.46,-21.81l6150.99 -10696.83c8.5,-14.78 8.5,-31.66 0.02,-46.45 -8.48,-14.79 -23.06,-23.3 -40.1,-23.43l-3327.78 -24.81c-16.33,-0.12 -30.43,7.43 -39.37,21.1l-602.79 921.35c-9.64,14.74 -10.36,32.33 -1.95,47.8 8.41,15.48 23.55,24.44 41.16,24.37l2184.75 -8.94c17.18,-0.07 31.95,8.41 40.56,23.28 8.6,14.87 8.58,31.91 -0.03,46.77l-4486.22 7730.83c-4.31,7.44 -6.3,14.81 -6.3,23.41z"/>
     <path class="fil0" d="M6244.43 8829.96l0 1938.31c0,21.42 -13.91,39.53 -34.61,45.06 -20.69,5.52 -41.78,-3.24 -52.46,-21.81l-6150.99 -10696.83c-8.5,-14.78 -8.51,-31.66 -0.02,-46.45 8.48,-14.79 23.05,-23.3 40.1,-23.43l3327.78 -24.81c16.33,-0.12 30.43,7.43 39.38,21.1l602.79 921.35c9.64,14.74 10.36,32.33 1.95,47.8 -8.41,15.48 -23.55,24.44 -41.16,24.37l-2184.76 -8.94c-17.17,-0.07 -31.95,8.41 -40.56,23.28 -8.6,14.87 -8.59,31.91 0.03,46.77l4486.22 7730.83c4.31,7.44 6.3,14.81 6.3,23.41z"/>
    </g>
    <g>
     <path class="fil0" d="M6247.32 6519.2l0 -1944.19c0,-9.09 -2.22,-16.89 -7.02,-24.61l-1473.13 -2371.21c-8.7,-14 -22.82,-21.92 -39.31,-22.03l-980.29 -6.56c-17.12,-0.12 -31.88,8.27 -40.54,23.03 -8.66,14.77 -8.78,31.74 -0.33,46.63l2453.42 4321.96c10.6,18.67 31.71,27.55 52.46,22.07 20.75,-5.48 34.73,-23.63 34.73,-45.09z"/>
     <path class="fil0" d="M6154.09 6519.2l0 -1944.19c0,-9.09 2.22,-16.89 7.02,-24.61l1473.13 -2371.21c8.7,-14 22.82,-21.92 39.31,-22.03l980.29 -6.56c17.12,-0.12 31.88,8.27 40.54,23.03 8.66,14.77 8.78,31.74 0.33,46.63l-2453.42 4321.96c-10.6,18.67 -31.71,27.55 -52.46,22.07 -20.75,-5.48 -34.73,-23.63 -34.73,-45.09z"/>
    </g>
   </g>
   <g>
    <path class="fil1" d="M2874.83 11533.55l260.26 0 0 14.36 -425.4 1148.76 -281.8 0 -427.2 -1148.76 0 -14.36 269.24 0 303.34 906.45 301.55 -906.45zm1724.93 0l0 14.36 -430.79 664.13 0 484.63 -247.7 0 0 -477.45 -420.02 -671.31 0 -14.36 287.19 0 262.06 448.74 272.83 -448.74 276.42 0zm1730.32 0l0 1163.12 -247.7 0 0 -723.36c-15.56,44.28 -42.18,102.31 -79.27,174.11l-201.93 405.66 -196.55 0 -205.82 -405.66c-37.1,-72.99 -63.72,-131.03 -79.27,-174.11l0 723.36 -247.7 0 0 -1163.12 262.06 0 265.65 509.76c20.34,39.49 39.49,79.88 57.43,121.16 17.95,41.29 32.31,77.48 43.08,108.6 17.05,-55.05 50.86,-131.63 101.41,-229.76l270.14 -509.76 258.47 0zm985.41 0c102.91,0 188.47,16.16 256.68,48.46 68.21,32.31 119.06,76.28 152.57,131.93 33.5,55.64 50.26,119.96 50.26,192.95 0,77.79 -17.65,146.89 -52.66,207.32 -35,60.43 -87.95,107.69 -158.85,141.8 -70.9,34.1 -157.06,51.15 -258.77,51.15l-148.98 0 0 389.5 -247.7 0 0 -1163.12 407.45 0zm-35.3 569c74.49,0 131.93,-14.06 172.31,-42.18 40.39,-28.12 60.43,-76.88 60.43,-146.28 0,-58.63 -17.95,-102.61 -54.15,-131.93 -35.9,-29.32 -86.16,-43.98 -151.07,-43.98l-151.97 0 0 364.37 124.45 0zm1232.53 385.91l538.48 0 0 208.22 -786.18 0 0 -1163.12 777.2 0 0 206.42 -529.5 0 0 262.06 457.71 0 -29.02 204.62 -428.69 0 0 281.8zm1315.69 -10.76l534.89 0 0 218.98 -782.59 0 0 -1163.12 247.7 0 0 944.14z"/>
    <path class="fil1" d="M4584.5 13769.52l0 217.19 -369.76 0 0 945.93 -247.7 0 0 -945.93 -371.55 0 0 -217.19 989.01 0zm721.56 954.9l538.48 0 0 208.22 -786.18 0 0 -1163.12 777.2 0 0 206.42 -529.5 0 0 262.06 457.71 0 -29.02 204.62 -428.69 0 0 281.8zm1568.77 233.35c-195.05,0 -337.75,-54.15 -428.09,-162.44 -90.35,-108.29 -135.52,-253.39 -135.52,-435.28 0,-147.18 25.13,-266.55 75.39,-358.08 50.26,-91.54 116.97,-157.36 200.13,-197.45 83.16,-40.09 176.8,-60.13 280.91,-60.13 72.99,0 140,8.68 201.03,26.03 61.03,17.35 122.06,43.98 183.09,79.88l-95.73 188.47c-85.26,-55.05 -178,-82.57 -277.92,-82.57 -203.13,0 -304.84,129.84 -304.84,389.5 0,129.24 28.42,227.36 84.96,294.37 56.54,67.01 136.42,100.52 239.93,100.52 52.95,0 99.02,-6.88 138.81,-20.64 39.78,-13.76 81.37,-33.21 124.44,-58.34l99.32 179.5c-64.62,38.29 -127.74,67.31 -189.36,87.05 -61.63,19.74 -127.15,29.62 -196.55,29.62zm1645.96 -1188.25l247.7 0 0 1163.12 -247.7 0 0 -482.84 -540.27 0 0 482.84 -247.7 0 0 -1163.12 247.7 0 0 464.89 540.27 0 0 -464.89z"/>
   </g>
  </g>
 </g>
</svg>
